<svg xmlns="http://www.w3.org/2000/svg" width="25" height="18"><path d="M6.184.608A.92.92 0 0 1 7.048 0h17.397a.56.56 0 0 1 .517.758l-6.146 16.635a.92.92 0 0 1-.864.608H.554a.56.56 0 0 1-.517-.758L6.184.608z" fill="#00b2a3"/><path d="M12.153 2.513c.118-.338.584-.338.694 0l1.396 4.058c.052.15.185.247.34.247l4.233.098a.37.37 0 0 1 .344.26.38.38 0 0 1-.13.415l-3.369 2.603a.374.374 0 0 0-.133.405l1.219 4.118c.103.338-.273.615-.561.412l-3.479-2.445a.362.362 0 0 0-.421 0l-3.479 2.453c-.288.203-.665-.075-.561-.412l1.219-4.117a.37.37 0 0 0-.133-.405l-3.37-2.605a.38.38 0 0 1-.13-.415.37.37 0 0 1 .344-.26l4.233-.098a.368.368 0 0 0 .34-.248l1.404-4.065z" fill="#fff"/></svg>