<svg xmlns="http://www.w3.org/2000/svg" width="118" height="20"><defs><linearGradient x1="49.752%" y1="100.338%" x2="49.752%" y2="-.247%" id="a"><stop stop-color="#116bf2" offset="71%"/><stop stop-color="#1e50e5" offset="100%"/></linearGradient><linearGradient x1="49.475%" y1="100.283%" x2="49.475%" y2="-.219%" id="b"><stop stop-color="#116bf2" offset="71%"/><stop stop-color="#1e50e5" offset="100%"/></linearGradient><linearGradient x1="17.378%" y1="18.457%" x2="94.528%" y2="82.209%" id="c"><stop stop-color="#116bf2" offset="41%"/><stop stop-color="#185dec" offset="100%"/></linearGradient><linearGradient x1="49.983%" y1="99.616%" x2="49.983%" y2="-1.037%" id="d"><stop stop-color="#116bf2" offset="58%"/><stop stop-color="#1e50e5" offset="100%"/></linearGradient><linearGradient x1="68.414%" y1="44.229%" x2="39.661%" y2="53.479%" id="e"><stop stop-color="#59c5ff" offset="3%"/><stop stop-color="#21b1ff" offset="99%"/></linearGradient><linearGradient x1="24.058%" y1="46.312%" x2="52.684%" y2="55.48%" id="f"><stop stop-color="#59c5ff" offset="4%"/><stop stop-color="#21b1ff" offset="99%"/></linearGradient><linearGradient x1="76.575%" y1="51.469%" x2="35.681%" y2="28.001%" id="g"><stop stop-color="#57c4ff" offset="4%"/><stop stop-color="#21b1ff" offset="99%"/></linearGradient><linearGradient x1="-.016%" y1="49.964%" x2="99.999%" y2="49.964%" id="h"><stop stop-color="#116bf2" offset="71%"/><stop stop-color="#1e50e5" offset="100%"/></linearGradient><linearGradient x1="-.013%" y1="49.941%" x2="100.034%" y2="49.941%" id="i"><stop stop-color="#116bf2" offset="71%"/><stop stop-color="#1e50e5" offset="100%"/></linearGradient></defs><path d="M9.479.059a.795.795 0 0 1 .216.137l3.402 3.393a.71.71 0 0 1 .216.51V19.75a.227.227 0 0 1-.236.235.223.223 0 0 1-.157-.059L9.715 16.73a.71.71 0 0 1-.216-.51V.059h-.02z" fill="url(#a)"/><path d="M18.841.216a.874.874 0 0 1 .216-.157V16.22a.71.71 0 0 1-.216.51l-3.206 3.197a.226.226 0 0 1-.393-.157V4.119c0-.177.079-.373.216-.49L18.841.216z" fill="url(#b)"/><path d="m25.016 12.65-.236-.235V9.081h-3.245a.24.24 0 0 0-.177.078l-2.321 2.314 7.434 7.433a.7.7 0 0 0 .511.196h3.914a.227.227 0 0 0 .236-.235.223.223 0 0 0-.059-.157l-6.057-6.06z" fill="url(#c)"/><path d="M19.332 0a.71.71 0 0 0-.511.216l-3.402 3.393c-.059.059-.098.137-.138.196h9.499v8.59l.236.235 3.383-3.354a.71.71 0 0 0 .216-.51V4.119a.71.71 0 0 0-.216-.51L24.996.216A.71.71 0 0 0 24.485 0h-5.153z" fill="url(#d)"/><path d="M9.676.216A.713.713 0 0 0 9.165 0H.236A.227.227 0 0 0 0 .235c0 .059.02.118.079.177l3.206 3.197a.717.717 0 0 0 .511.216h9.047a.48.48 0 0 1 .472.471v-.177a.71.71 0 0 0-.216-.51L9.676.216z" fill="url(#e)"/><path d="M18.821.216A.717.717 0 0 1 19.332 0h5.153a.71.71 0 0 1 .511.216l3.402 3.393a.71.71 0 0 1 .216.51v.177a.48.48 0 0 0-.472-.471H15.714a.48.48 0 0 0-.472.471v-.177a.71.71 0 0 1 .216-.51L18.821.216z" fill="url(#f)"/><path d="M28.615 8.59a.48.48 0 0 1-.472.471h-6.411a.127.127 0 0 0-.118.118c0 .039.02.059.039.078l3.383 3.373 3.383-3.354a.71.71 0 0 0 .216-.51V8.59h-.02z" fill="url(#g)"/><path d="M118 12.787c0-1.608-.924-2.216-3.186-2.785-1.357-.333-1.711-.608-1.711-1.079s.433-.785 1.318-.785a6.33 6.33 0 0 1 2.793.765l.275-1.726a7.784 7.784 0 0 0-3.068-.608c-2.045 0-3.245 1.039-3.245 2.491 0 1.569.885 2.157 3.009 2.687 1.475.353 1.888.588 1.888 1.216 0 .569-.57.922-1.573.922a6.43 6.43 0 0 1-3.245-1l-.275 1.746a7.987 7.987 0 0 0 3.422.824c2.36 0 3.599-1 3.599-2.667zm-8.044 2.491v-8.59h-2.085v5.825c-.688.667-1.416 1.098-2.144 1.098-.846 0-1.2-.51-1.2-1.275V6.668h-2.085v6.198c0 1.589.885 2.55 2.576 2.55 1.18 0 2.144-.608 2.989-1.373l.295 1.196 1.652.039zm-8.771 0v-8.59H99.12v8.59h2.065zm-1.023-12.356a1.19 1.19 0 0 1 1.2 1.196 1.19 1.19 0 1 1-2.399 0 1.19 1.19 0 0 1 1.2-1.196zm-4.346 9.493c-.61.745-1.278 1.216-2.124 1.216-1.042 0-1.809-.804-1.809-2.491 0-1.883.905-2.805 2.124-2.805a4.04 4.04 0 0 1 1.809.373v3.707zm2.065 2.863V2.51l-2.065.353v4.138a6.842 6.842 0 0 0-2.104-.333c-2.085 0-3.933 1.412-3.933 4.589 0 2.863 1.514 4.197 3.402 4.197 1.259 0 2.124-.628 2.773-1.353l.177 1.177h1.75zm-11.033-2.354a3.334 3.334 0 0 1-2.203.961c-.708 0-1.16-.392-1.16-1 0-.824.649-1.549 3.383-1.863v1.902h-.02zm2.065 2.354V9.434c0-2.02-1.101-2.844-3.383-2.844a9.28 9.28 0 0 0-3.501.686l.256 1.647a8.309 8.309 0 0 1 3.009-.686c.983 0 1.573.353 1.573 1.275v.275c-3.658.353-5.428 1.236-5.428 3.295 0 1.471 1.023 2.354 2.557 2.354a4.217 4.217 0 0 0 3.009-1.275l.197 1.098h1.711v.02zm-7.827-.314-3.304-4.491c1.495-.471 2.478-1.51 2.478-3.197 0-2.197-1.593-3.452-4.228-3.452h-3.638v11.454h2.144v-4.432h1.042l3.225 4.531 2.281-.412zm-2.97-7.57c0 1.196-.905 1.844-2.36 1.844h-1.219V5.59h1.337c1.475.02 2.242.667 2.242 1.804zm-6.805 7.884-.256-1.706a4.642 4.642 0 0 1-.747.059c-.846 0-1.18-.373-1.18-1.079V8.355h2.183l-.354-1.667h-1.829V3.707l-2.045.353v2.628h-1.396v1.667h1.396v4.531c0 1.922 1.141 2.51 2.852 2.51.472.02.924-.02 1.377-.118zm-6.057-2.491c0-1.608-.924-2.216-3.186-2.785-1.357-.333-1.711-.608-1.711-1.079s.433-.785 1.318-.785a6.33 6.33 0 0 1 2.793.765l.295-1.726a7.784 7.784 0 0 0-3.068-.608c-2.045 0-3.245 1.039-3.245 2.491 0 1.569.885 2.157 3.009 2.687 1.475.353 1.888.588 1.888 1.216 0 .569-.57.922-1.573.922a6.238 6.238 0 0 1-3.206-1l-.295 1.746a8.005 8.005 0 0 0 3.442.824c2.301 0 3.54-1 3.54-2.667zm-7.926 2.491v-8.59h-2.085v5.825c-.688.667-1.416 1.098-2.144 1.098-.846 0-1.2-.51-1.2-1.275V6.668h-2.085v6.198c0 1.589.885 2.55 2.576 2.55 1.18 0 2.144-.608 2.989-1.373l.295 1.196 1.652.039zM48.832 8.59l-.472-2.02c-1.318.235-2.104.922-2.714 1.902l-.393-1.785h-1.554v8.59h2.026v-4.903a4.04 4.04 0 0 1 3.107-1.785z" fill="url(#h)"/><path fill="url(#i)" d="m44.997 5.727-.472-1.902H34.358v1.902h3.835v9.551h2.144V5.727z"/></svg>